<svg xmlns="http://www.w3.org/2000/svg" xmlns:xlink="http://www.w3.org/1999/xlink" width="16" height="16" viewBox="0 0 16 16"><defs><style>.a{fill:none;}.b{clip-path:url(#a);}.c{fill:#343638;}</style><clipPath id="a"><rect class="a" width="16" height="16"/></clipPath></defs><g class="b"><path class="c" d="M1,16a1,1,0,0,1-1-1v-.285a1,1,0,0,1,1-1H15a1,1,0,0,1,1,1V15a1,1,0,0,1-1,1ZM1,9.142a1,1,0,0,1-1-1V7.857a1,1,0,0,1,1-1H9a1,1,0,0,1,1,1v.285a1,1,0,0,1-1,1ZM1,2.286a1,1,0,0,1-1-1V1A1,1,0,0,1,1,0H15a1,1,0,0,1,1,1v.285a1,1,0,0,1-1,1Z"/></g></svg>